<?xml version="1.0" encoding="UTF-8"?>
<svg id="Layer_3" xmlns="http://www.w3.org/2000/svg" version="1.1" viewBox="0 0 1080 1080">
  <!-- Generator: Adobe Illustrator 29.5.1, SVG Export Plug-In . SVG Version: 2.1.0 Build 141)  -->
  <defs>
    <style>
      .st0 {
        fill: #fabb22;
      }
    </style>
  </defs>
  <path class="st0" d="M472.852,169.043c25.091,20.741,37.637,55.152,37.637,103.215v258.132h-102.69v-233.153c0-20.159-2.682-35.63-8.026-46.413-9.789-19.69-28.392-29.536-55.865-29.536-33.755,0-56.896,14.421-69.46,43.263-6.526,15.246-9.77,34.693-9.77,58.377v207.481h-100.233V147.758h97.064v55.921c12.846-19.69,24.979-33.867,36.418-42.55,20.534-15.471,46.563-23.216,78.086-23.216,39.456,0,71.729,10.37,96.82,31.13h.019Z"/>
  <path class="st0" d="M672.602,266.667c-14.121,18.734-21.172,45.344-21.172,79.868s7.07,61.078,21.172,79.699c14.121,18.621,34.355,27.942,60.703,27.942s46.638-9.32,60.853-27.942c14.233-18.622,21.341-45.194,21.341-79.699s-7.107-61.134-21.341-79.868c-14.214-18.734-34.505-28.092-60.853-28.092s-46.563,9.358-60.703,28.092ZM600.535,216.879c29.085-35.893,73.229-53.858,132.451-53.858s103.365,17.946,132.451,53.858c29.086,35.893,43.619,79.118,43.619,129.657s-14.533,92.751-43.619,129.188c-29.086,36.437-73.23,54.646-132.451,54.646s-103.365-18.209-132.451-54.646c-29.086-36.418-43.619-79.493-43.619-129.188s14.533-93.764,43.619-129.657Z"/>
  <rect class="st0" x="682.558" y="138.492" width="100.871" height="174.082"/>
  <path class="st0" d="M600.652,910.995c-25.091-20.741-37.637-55.152-37.637-103.215v-258.132h102.69v233.153c0,20.159,2.682,35.63,8.026,46.413,9.789,19.69,28.392,29.536,55.865,29.536,33.755,0,56.896-14.421,69.46-43.263,6.526-15.246,9.77-34.693,9.77-58.377v-207.481h100.233v382.613h-97.064v-55.921c-12.846,19.69-24.979,33.867-36.418,42.55-20.534,15.471-46.563,23.216-78.087,23.216-39.456,0-71.729-10.37-96.82-31.13l-.019.037Z"/>
  <path class="st0" d="M400.922,813.345c14.121-18.734,21.172-45.344,21.172-79.868s-7.07-61.078-21.172-79.699c-14.121-18.621-34.355-27.942-60.703-27.942s-46.638,9.32-60.853,27.942c-14.233,18.621-21.341,45.194-21.341,79.699s7.107,61.134,21.341,79.868c14.215,18.734,34.505,28.092,60.853,28.092s46.563-9.358,60.703-28.092ZM472.989,863.134c-29.086,35.893-73.229,53.858-132.451,53.858s-103.365-17.946-132.451-53.858c-29.086-35.893-43.619-79.118-43.619-129.657s14.533-92.751,43.619-129.188c29.086-36.437,73.229-54.646,132.451-54.646s103.365,18.209,132.451,54.646c29.086,36.418,43.619,79.493,43.619,129.188s-14.533,93.764-43.619,129.657Z"/>
  <rect class="st0" x="290.095" y="767.457" width="100.871" height="174.082"/>
</svg>